<svg width="240" height="120" viewBox="0 0 240 120" fill="none" xmlns="http://www.w3.org/2000/svg">
<path d="M7.31494 91.2576C6.66244 91.2576 6.11296 91.0343 5.66651 90.5879C5.22005 90.1414 4.99683 89.592 4.99683 88.9395V57.1555C4.99683 56.503 5.22005 55.9535 5.66651 55.5071C6.11296 55.0263 6.66244 54.7859 7.31494 54.7859C7.96745 54.7859 8.51693 55.0263 8.96338 55.5071C9.44418 55.9535 9.68457 56.503 9.68457 57.1555V70.8581H29.2083V57.1555C29.2083 56.503 29.4315 55.9535 29.8779 55.5071C30.3244 55.0263 30.8739 54.7859 31.5264 54.7859C32.1789 54.7859 32.7284 55.0263 33.1748 55.5071C33.6556 55.9535 33.896 56.503 33.896 57.1555V88.9395C33.896 89.592 33.6556 90.1414 33.1748 90.5879C32.7284 91.0343 32.1789 91.2576 31.5264 91.2576C30.8739 91.2576 30.3244 91.0343 29.8779 90.5879C29.4315 90.1414 29.2083 89.592 29.2083 88.9395V75.2368H9.68457V88.9395C9.68457 89.592 9.44418 90.1414 8.96338 90.5879C8.51693 91.0343 7.96745 91.2576 7.31494 91.2576ZM49.6532 91.5151C48.1421 91.5151 46.7341 91.2061 45.429 90.5879C44.1584 89.9697 43.1453 89.0768 42.3897 87.9092C41.6342 86.7072 41.2564 85.3335 41.2564 83.7881C41.2564 81.2467 42.2524 79.2205 44.2442 77.7095C46.2704 76.1984 49.2239 75.4429 53.1046 75.4429H59.3377V75.0308C59.3377 72.7642 58.7711 71.1329 57.6378 70.137C56.5388 69.141 54.8045 68.6431 52.4349 68.6431C51.1299 68.6431 49.9622 68.7461 48.932 68.9521C47.936 69.1582 46.8199 69.4673 45.5836 69.8794C45.3088 69.9481 45.0856 69.9824 44.9139 69.9824C44.3988 69.9824 43.9523 69.7935 43.5745 69.4158C43.1968 69.038 43.0079 68.5744 43.0079 68.0249C43.0079 67.0976 43.4543 66.4451 44.3473 66.0674C47.2664 64.831 50.237 64.2129 53.2591 64.2129C55.6287 64.2129 57.6206 64.6937 59.2347 65.6553C60.8831 66.6169 62.0851 67.8704 62.8407 69.4158C63.6305 70.9268 64.0255 72.5753 64.0255 74.3611V88.9395C64.0255 89.592 63.7851 90.1414 63.3043 90.5879C62.8578 91.0343 62.3084 91.2576 61.6559 91.2576C61.0033 91.2576 60.4539 91.0343 60.0074 90.5879C59.561 90.1414 59.3377 89.592 59.3377 88.9395V87.6001C56.7964 90.2101 53.5682 91.5151 49.6532 91.5151ZM51.4046 87.394C52.9157 87.394 54.3752 87.0334 55.7833 86.3123C57.1913 85.5567 58.3761 84.6295 59.3377 83.5305V79.2034H53.7227C48.537 79.2034 45.9442 80.5599 45.9442 83.2729C45.9442 84.5093 46.3563 85.5052 47.1805 86.2607C48.0391 87.0163 49.4471 87.394 51.4046 87.394ZM74.2006 91.2576C73.5481 91.2576 72.9987 91.0343 72.5522 90.5879C72.1058 90.1414 71.8825 89.592 71.8825 88.9395V66.8401C71.8825 66.1876 72.1058 65.6381 72.5522 65.1916C72.9987 64.7108 73.5481 64.4704 74.2006 64.4704C74.8531 64.4704 75.4026 64.7108 75.8491 65.1916C76.3299 65.6381 76.5703 66.1876 76.5703 66.8401V69.0552C78.9742 65.827 81.6701 64.2129 84.6579 64.2129H84.9155C85.568 64.2129 86.1003 64.4361 86.5124 64.8826C86.9589 65.329 87.1821 65.8785 87.1821 66.531C87.1821 67.1835 86.9589 67.7158 86.5124 68.1279C86.066 68.54 85.4993 68.7461 84.8125 68.7461H84.5549C82.9065 68.7461 81.3954 69.1582 80.0217 69.9824C78.648 70.7723 77.4975 71.8712 76.5703 73.2793V88.9395C76.5703 89.592 76.3299 90.1414 75.8491 90.5879C75.4026 91.0343 74.8531 91.2576 74.2006 91.2576ZM100.927 91.2576C100.308 91.2576 99.7418 91.0859 99.2266 90.7424C98.7115 90.3647 98.3337 89.901 98.0933 89.3516L89.1299 67.9219C88.9582 67.5098 88.8724 67.1492 88.8724 66.8401C88.8724 66.1876 89.0956 65.6381 89.5421 65.1916C89.9885 64.7108 90.538 64.4704 91.1905 64.4704C91.6369 64.4704 92.0491 64.6078 92.4268 64.8826C92.8389 65.123 93.1308 65.432 93.3026 65.8098L101.184 85.7971L109.066 65.8098C109.237 65.432 109.512 65.123 109.89 64.8826C110.302 64.6078 110.731 64.4704 111.178 64.4704C111.83 64.4704 112.38 64.7108 112.826 65.1916C113.273 65.6381 113.496 66.1876 113.496 66.8401C113.496 67.1492 113.41 67.5098 113.238 67.9219L104.275 89.3516C104.035 89.901 103.657 90.3647 103.142 90.7424C102.627 91.0859 102.06 91.2576 101.442 91.2576H100.927ZM130.312 91.5151C126.122 91.5151 122.842 90.3303 120.473 87.9607C118.138 85.5567 116.97 82.1912 116.97 77.864C116.97 75.4257 117.416 73.1763 118.309 71.1157C119.202 69.0552 120.576 67.3896 122.43 66.1189C124.285 64.8482 126.569 64.2129 129.282 64.2129C131.823 64.2129 134.021 64.8139 135.875 66.0159C137.73 67.1835 139.138 68.7633 140.1 70.7551C141.061 72.7126 141.542 74.859 141.542 77.1943C141.542 77.8468 141.319 78.3963 140.872 78.8428C140.46 79.2892 139.893 79.5124 139.172 79.5124H121.709C121.984 81.9164 122.877 83.7881 124.388 85.1274C125.899 86.4668 128.011 87.1365 130.724 87.1365C132.166 87.1365 133.42 86.9991 134.485 86.7244C135.583 86.4496 136.648 86.0547 137.678 85.5395C137.953 85.4022 138.262 85.3335 138.606 85.3335C139.155 85.3335 139.636 85.5224 140.048 85.9001C140.46 86.2779 140.666 86.7587 140.666 87.3425C140.666 88.0981 140.22 88.7334 139.327 89.2485C137.987 90.0041 136.665 90.5707 135.36 90.9485C134.055 91.3263 132.372 91.5151 130.312 91.5151ZM136.906 75.7004C136.803 74.0177 136.356 72.6096 135.566 71.4763C134.811 70.343 133.866 69.5188 132.733 69.0037C131.6 68.4542 130.449 68.1794 129.282 68.1794C128.114 68.1794 126.964 68.4542 125.83 69.0037C124.697 69.5188 123.753 70.343 122.997 71.4763C122.241 72.6096 121.812 74.0177 121.709 75.7004H136.906ZM159.49 91.5151C155.3 91.5151 152.02 90.3303 149.65 87.9607C147.315 85.5567 146.148 82.1912 146.148 77.864C146.148 75.4257 146.594 73.1763 147.487 71.1157C148.38 69.0552 149.754 67.3896 151.608 66.1189C153.462 64.8482 155.746 64.2129 158.459 64.2129C161.001 64.2129 163.199 64.8139 165.053 66.0159C166.908 67.1835 168.316 68.7633 169.277 70.7551C170.239 72.7126 170.72 74.859 170.72 77.1943C170.72 77.8468 170.496 78.3963 170.05 78.8428C169.638 79.2892 169.071 79.5124 168.35 79.5124H150.887C151.162 81.9164 152.054 83.7881 153.566 85.1274C155.077 86.4668 157.189 87.1365 159.902 87.1365C161.344 87.1365 162.598 86.9991 163.662 86.7244C164.761 86.4496 165.826 86.0547 166.856 85.5395C167.131 85.4022 167.44 85.3335 167.783 85.3335C168.333 85.3335 168.814 85.5224 169.226 85.9001C169.638 86.2779 169.844 86.7587 169.844 87.3425C169.844 88.0981 169.397 88.7334 168.504 89.2485C167.165 90.0041 165.843 90.5707 164.538 90.9485C163.233 91.3263 161.55 91.5151 159.49 91.5151ZM166.083 75.7004C165.98 74.0177 165.534 72.6096 164.744 71.4763C163.988 70.343 163.044 69.5188 161.911 69.0037C160.777 68.4542 159.627 68.1794 158.459 68.1794C157.292 68.1794 156.141 68.4542 155.008 69.0037C153.875 69.5188 152.93 70.343 152.175 71.4763C151.419 72.6096 150.99 74.0177 150.887 75.7004H166.083ZM188.667 91.5151C184.477 91.5151 181.198 90.3303 178.828 87.9607C176.493 85.5567 175.325 82.1912 175.325 77.864C175.325 75.4257 175.772 73.1763 176.665 71.1157C177.557 69.0552 178.931 67.3896 180.786 66.1189C182.64 64.8482 184.924 64.2129 187.637 64.2129C190.178 64.2129 192.376 64.8139 194.231 66.0159C196.085 67.1835 197.493 68.7633 198.455 70.7551C199.416 72.7126 199.897 74.859 199.897 77.1943C199.897 77.8468 199.674 78.3963 199.228 78.8428C198.815 79.2892 198.249 79.5124 197.528 79.5124H180.064C180.339 81.9164 181.232 83.7881 182.743 85.1274C184.254 86.4668 186.366 87.1365 189.079 87.1365C190.522 87.1365 191.775 86.9991 192.84 86.7244C193.939 86.4496 195.003 86.0547 196.034 85.5395C196.308 85.4022 196.618 85.3335 196.961 85.3335C197.51 85.3335 197.991 85.5224 198.403 85.9001C198.815 86.2779 199.022 86.7587 199.022 87.3425C199.022 88.0981 198.575 88.7334 197.682 89.2485C196.343 90.0041 195.021 90.5707 193.716 90.9485C192.411 91.3263 190.728 91.5151 188.667 91.5151ZM195.261 75.7004C195.158 74.0177 194.712 72.6096 193.922 71.4763C193.166 70.343 192.222 69.5188 191.088 69.0037C189.955 68.4542 188.805 68.1794 187.637 68.1794C186.469 68.1794 185.319 68.4542 184.186 69.0037C183.052 69.5188 182.108 70.343 181.352 71.4763C180.597 72.6096 180.168 74.0177 180.064 75.7004H195.261Z" fill="white"/>
<g filter="url(#filter0_d_518_750)">
<path d="M189.655 31.8773C188.066 33.5435 177.387 34.0229 171.929 36.192C168.005 38.3687 164.365 42.1043 163.035 43.6999C159.415 49.533 159.17 58.7987 159.5 62.7025C172.654 62.9584 180.068 58.1187 182.131 55.6668C187.886 49.1399 189.545 37.0876 189.655 31.8773Z" fill="#487D4B"/>
<path d="M189.574 32.1651C188.303 33.7476 186.314 36.0853 183.764 38.8968M159.699 61.9765C162.697 59.513 165.594 56.9702 168.337 54.4446M161.662 47.5243C161.692 51.4715 163.159 59.8368 168.78 61.7212M167.48 55.9445C170.347 57.378 176.226 60.0675 176.798 59.3576M168.337 54.4446C167.766 53.211 164.643 48.0778 166.675 40.453M168.337 54.4446C169.395 53.4707 170.429 52.4994 171.438 51.5361M171.438 51.5361C174.32 52.9229 180.496 55.5658 182.145 55.0435M171.438 51.5361C171.756 51.2324 172.072 50.9294 172.384 50.6274M172.384 50.6274C171.484 48.5186 170.426 42.6388 173.394 35.9903M172.384 50.6274C173.461 49.5884 174.505 48.561 175.513 47.5524M175.513 47.5524C175.954 47.6886 184.961 49.6809 185.766 49.602M175.513 47.5524C176.895 46.1706 178.209 44.8239 179.446 43.5305M176.793 45.5069C177.032 42.4727 177.63 36.1419 178.109 35.0917M179.446 43.5305C180.218 43.6074 185.756 45.475 187.404 43.869M179.446 43.5305C181.017 41.8875 182.463 40.3305 183.764 38.8968M183.764 38.8968C185.266 38.9782 188.363 39.0897 188.733 38.8843M183.764 38.8968L183.773 34.1564" stroke="#3F5542" stroke-width="0.154844"/>
</g>
<path d="M6.34766 117.774C10.7668 115.556 60.482 91.163 80.3681 104.468C89.5747 111.121 96.9399 123.096 52.7485 117.774C41.7007 114.817 37.0606 108.016 106.883 104.468L202.999 101.142" stroke="#F3F3F3" stroke-width="1.54844"/>
<defs>
<filter id="filter0_d_518_750" x="131.521" y="0.908227" width="107.685" height="108.257" filterUnits="userSpaceOnUse" color-interpolation-filters="sRGB">
<feFlood flood-opacity="0" result="BackgroundImageFix"/>
<feColorMatrix in="SourceAlpha" type="matrix" values="0 0 0 0 0 0 0 0 0 0 0 0 0 0 0 0 0 0 127 0" result="hardAlpha"/>
<feOffset dx="10.8391" dy="7.74218"/>
<feGaussianBlur stdDeviation="19.3555"/>
<feComposite in2="hardAlpha" operator="out"/>
<feColorMatrix type="matrix" values="0 0 0 0 0 0 0 0 0 0 0 0 0 0 0 0 0 0 0.25 0"/>
<feBlend mode="normal" in2="BackgroundImageFix" result="effect1_dropShadow_518_750"/>
<feBlend mode="normal" in="SourceGraphic" in2="effect1_dropShadow_518_750" result="shape"/>
</filter>
</defs>
</svg>
