<svg width="155" height="78" viewBox="0 0 155 78" fill="none" xmlns="http://www.w3.org/2000/svg">
<path d="M4.72408 59.1663C4.30269 59.1663 3.94783 59.0222 3.6595 58.7339C3.37118 58.4455 3.22702 58.0907 3.22702 57.6693V37.1428C3.22702 36.7214 3.37118 36.3665 3.6595 36.0782C3.94783 35.7677 4.30269 35.6125 4.72408 35.6125C5.14548 35.6125 5.50034 35.7677 5.78867 36.0782C6.09917 36.3665 6.25442 36.7214 6.25442 37.1428V45.9921H18.8631V37.1428C18.8631 36.7214 19.0072 36.3665 19.2956 36.0782C19.5839 35.7677 19.9387 35.6125 20.3601 35.6125C20.7815 35.6125 21.1364 35.7677 21.4247 36.0782C21.7352 36.3665 21.8905 36.7214 21.8905 37.1428V57.6693C21.8905 58.0907 21.7352 58.4455 21.4247 58.7339C21.1364 59.0222 20.7815 59.1663 20.3601 59.1663C19.9387 59.1663 19.5839 59.0222 19.2956 58.7339C19.0072 58.4455 18.8631 58.0907 18.8631 57.6693V48.8199H6.25442V57.6693C6.25442 58.0907 6.09917 58.4455 5.78867 58.7339C5.50034 59.0222 5.14548 59.1663 4.72408 59.1663ZM32.0666 59.3327C31.0908 59.3327 30.1814 59.1331 29.3387 58.7339C28.518 58.3346 27.8638 57.758 27.3758 57.0039C26.8879 56.2276 26.6439 55.3405 26.6439 54.3425C26.6439 52.7012 27.2871 51.3927 28.5735 50.4168C29.882 49.4409 31.7894 48.953 34.2956 48.953H38.3211V48.6869C38.3211 47.2231 37.9551 46.1696 37.2232 45.5264C36.5135 44.8832 35.3935 44.5616 33.8631 44.5616C33.0203 44.5616 32.2663 44.6281 31.6009 44.7612C30.9577 44.8943 30.2369 45.0939 29.4385 45.36C29.261 45.4044 29.1169 45.4266 29.006 45.4266C28.6733 45.4266 28.385 45.3046 28.141 45.0606C27.897 44.8167 27.775 44.5172 27.775 44.1624C27.775 43.5636 28.0634 43.1422 28.64 42.8982C30.5252 42.0998 32.4437 41.7005 34.3954 41.7005C35.9258 41.7005 37.2121 42.011 38.2545 42.632C39.3191 43.2531 40.0954 44.0626 40.5833 45.0606C41.0934 46.0365 41.3485 47.1011 41.3485 48.2544V57.6693C41.3485 58.0907 41.1932 58.4455 40.8827 58.7339C40.5944 59.0222 40.2395 59.1663 39.8181 59.1663C39.3967 59.1663 39.0419 59.0222 38.7536 58.7339C38.4652 58.4455 38.3211 58.0907 38.3211 57.6693V56.8043C36.6798 58.4899 34.595 59.3327 32.0666 59.3327ZM33.1978 56.6712C34.1736 56.6712 35.1162 56.4383 36.0256 55.9726C36.9349 55.4847 37.7001 54.8858 38.3211 54.1761V51.3816H34.6948C31.3458 51.3816 29.6713 52.2576 29.6713 54.0098C29.6713 54.8082 29.9375 55.4514 30.4698 55.9393C31.0242 56.4273 31.9336 56.6712 33.1978 56.6712ZM47.9197 59.1663C47.4983 59.1663 47.1435 59.0222 46.8551 58.7339C46.5668 58.4455 46.4227 58.0907 46.4227 57.6693V43.3972C46.4227 42.9758 46.5668 42.621 46.8551 42.3326C47.1435 42.0221 47.4983 41.8669 47.9197 41.8669C48.3411 41.8669 48.696 42.0221 48.9843 42.3326C49.2948 42.621 49.4501 42.9758 49.4501 43.3972V44.8277C51.0026 42.7429 52.7436 41.7005 54.6732 41.7005H54.8395C55.2609 41.7005 55.6047 41.8447 55.8708 42.133C56.1591 42.4213 56.3033 42.7762 56.3033 43.1976C56.3033 43.619 56.1591 43.9628 55.8708 44.2289C55.5825 44.4951 55.2165 44.6281 54.773 44.6281H54.6066C53.542 44.6281 52.5662 44.8943 51.679 45.4266C50.7919 45.9367 50.0489 46.6464 49.4501 47.5557V57.6693C49.4501 58.0907 49.2948 58.4455 48.9843 58.7339C48.696 59.0222 48.3411 59.1663 47.9197 59.1663ZM65.1797 59.1663C64.7805 59.1663 64.4145 59.0554 64.0818 58.8337C63.7491 58.5897 63.5052 58.2903 63.3499 57.9354L57.5613 44.0958C57.4504 43.8297 57.3949 43.5968 57.3949 43.3972C57.3949 42.9758 57.5391 42.621 57.8274 42.3326C58.1157 42.0221 58.4706 41.8669 58.892 41.8669C59.1803 41.8669 59.4465 41.9556 59.6904 42.133C59.9566 42.2883 60.1451 42.4879 60.256 42.7318L65.346 55.6399L70.4361 42.7318C70.547 42.4879 70.7244 42.2883 70.9683 42.133C71.2345 41.9556 71.5117 41.8669 71.8001 41.8669C72.2215 41.8669 72.5763 42.0221 72.8646 42.3326C73.153 42.621 73.2971 42.9758 73.2971 43.3972C73.2971 43.5968 73.2417 43.8297 73.1308 44.0958L67.3421 57.9354C67.1869 58.2903 66.9429 58.5897 66.6102 58.8337C66.2775 59.0554 65.9116 59.1663 65.5124 59.1663H65.1797ZM84.1571 59.3327C81.4513 59.3327 79.3332 58.5675 77.8029 57.0372C76.2947 55.4847 75.5406 53.3111 75.5406 50.5166C75.5406 48.9419 75.829 47.4892 76.4056 46.1585C76.9823 44.8277 77.8694 43.7521 79.0671 42.9315C80.2647 42.1108 81.7396 41.7005 83.4917 41.7005C85.133 41.7005 86.5524 42.0887 87.7501 42.8649C88.9477 43.619 89.8571 44.6392 90.4781 45.9256C91.0991 47.1898 91.4096 48.576 91.4096 50.0841C91.4096 50.5055 91.2654 50.8604 90.9771 51.1487C90.7109 51.437 90.345 51.5812 89.8792 51.5812H78.6013C78.7787 53.1337 79.3554 54.3425 80.3313 55.2074C81.3071 56.0724 82.6711 56.5049 84.4233 56.5049C85.3548 56.5049 86.1643 56.4162 86.8518 56.2387C87.5616 56.0613 88.2491 55.8063 88.9145 55.4736C89.0919 55.3849 89.2915 55.3405 89.5133 55.3405C89.8682 55.3405 90.1787 55.4625 90.4448 55.7064C90.7109 55.9504 90.844 56.2609 90.844 56.638C90.844 57.1259 90.5557 57.5362 89.979 57.8689C89.1141 58.3568 88.2602 58.7228 87.4174 58.9667C86.5746 59.2107 85.4878 59.3327 84.1571 59.3327ZM88.4154 49.1193C88.3489 48.0326 88.0606 47.1233 87.5505 46.3914C87.0625 45.6595 86.4526 45.1272 85.7207 44.7945C84.9888 44.4396 84.2458 44.2622 83.4917 44.2622C82.7377 44.2622 81.9947 44.4396 81.2628 44.7945C80.5309 45.1272 79.921 45.6595 79.433 46.3914C78.9451 47.1233 78.6679 48.0326 78.6013 49.1193H88.4154ZM103 59.3327C100.295 59.3327 98.1765 58.5675 96.6462 57.0372C95.138 55.4847 94.384 53.3111 94.384 50.5166C94.384 48.9419 94.6723 47.4892 95.2489 46.1585C95.8256 44.8277 96.7127 43.7521 97.9104 42.9315C99.1081 42.1108 100.583 41.7005 102.335 41.7005C103.976 41.7005 105.396 42.0887 106.593 42.8649C107.791 43.619 108.7 44.6392 109.321 45.9256C109.942 47.1898 110.253 48.576 110.253 50.0841C110.253 50.5055 110.109 50.8604 109.82 51.1487C109.554 51.437 109.188 51.5812 108.723 51.5812H97.4446C97.6221 53.1337 98.1987 54.3425 99.1746 55.2074C100.15 56.0724 101.514 56.5049 103.267 56.5049C104.198 56.5049 105.008 56.4162 105.695 56.2387C106.405 56.0613 107.092 55.8063 107.758 55.4736C107.935 55.3849 108.135 55.3405 108.357 55.3405C108.711 55.3405 109.022 55.4625 109.288 55.7064C109.554 55.9504 109.687 56.2609 109.687 56.638C109.687 57.1259 109.399 57.5362 108.822 57.8689C107.957 58.3568 107.104 58.7228 106.261 58.9667C105.418 59.2107 104.331 59.3327 103 59.3327ZM107.259 49.1193C107.192 48.0326 106.904 47.1233 106.394 46.3914C105.906 45.6595 105.296 45.1272 104.564 44.7945C103.832 44.4396 103.089 44.2622 102.335 44.2622C101.581 44.2622 100.838 44.4396 100.106 44.7945C99.3742 45.1272 98.7643 45.6595 98.2763 46.3914C97.7884 47.1233 97.5112 48.0326 97.4446 49.1193H107.259ZM121.844 59.3327C119.138 59.3327 117.02 58.5675 115.49 57.0372C113.981 55.4847 113.227 53.3111 113.227 50.5166C113.227 48.9419 113.516 47.4892 114.092 46.1585C114.669 44.8277 115.556 43.7521 116.754 42.9315C117.951 42.1108 119.426 41.7005 121.178 41.7005C122.82 41.7005 124.239 42.0887 125.437 42.8649C126.634 43.619 127.544 44.6392 128.165 45.9256C128.786 47.1898 129.096 48.576 129.096 50.0841C129.096 50.5055 128.952 50.8604 128.664 51.1487C128.398 51.437 128.032 51.5812 127.566 51.5812H116.288C116.465 53.1337 117.042 54.3425 118.018 55.2074C118.994 56.0724 120.358 56.5049 122.11 56.5049C123.041 56.5049 123.851 56.4162 124.538 56.2387C125.248 56.0613 125.936 55.8063 126.601 55.4736C126.779 55.3849 126.978 55.3405 127.2 55.3405C127.555 55.3405 127.865 55.4625 128.131 55.7064C128.398 55.9504 128.531 56.2609 128.531 56.638C128.531 57.1259 128.242 57.5362 127.666 57.8689C126.801 58.3568 125.947 58.7228 125.104 58.9667C124.261 59.2107 123.174 59.3327 121.844 59.3327ZM126.102 49.1193C126.036 48.0326 125.747 47.1233 125.237 46.3914C124.749 45.6595 124.139 45.1272 123.407 44.7945C122.675 44.4396 121.932 44.2622 121.178 44.2622C120.424 44.2622 119.681 44.4396 118.949 44.7945C118.218 45.1272 117.608 45.6595 117.12 46.3914C116.632 47.1233 116.354 48.0326 116.288 49.1193H126.102Z" fill="#1190CC"/>
<g filter="url(#filter0_d_475_912)">
<path d="M122.482 20.6698C121.455 21.7459 114.559 22.0555 111.034 23.4563C108.5 24.8621 106.149 27.2745 105.29 28.305C102.953 32.0721 102.794 38.056 103.007 40.5771C111.502 40.7424 116.29 37.6168 117.623 36.0334C121.339 31.8182 122.411 24.0347 122.482 20.6698Z" fill="#487D4B"/>
<path d="M122.429 20.8558C121.608 21.8778 120.324 23.3875 118.677 25.2032M103.135 40.1084C105.072 38.5174 106.943 36.8752 108.714 35.2442M104.403 30.775C104.423 33.3241 105.37 38.7266 109 39.9435M108.16 36.2128C110.012 37.1386 113.809 38.8756 114.179 38.4171M108.714 35.2442C108.345 34.4475 106.328 31.1325 107.64 26.2082M108.714 35.2442C109.397 34.6153 110.065 33.9879 110.717 33.3659M110.717 33.3659C112.578 34.2614 116.567 35.9683 117.631 35.631M110.717 33.3659C110.922 33.1697 111.126 32.974 111.328 32.779M111.328 32.779C110.747 31.4171 110.063 27.6199 111.98 23.3262M111.328 32.779C112.023 32.108 112.697 31.4445 113.349 30.7931M113.349 30.7931C113.633 30.8811 119.45 32.1678 119.97 32.1168M113.349 30.7931C114.241 29.9007 115.09 29.031 115.888 28.1957M114.175 29.4721C114.329 27.5126 114.715 23.4241 115.025 22.7459M115.888 28.1957C116.387 28.2454 119.964 29.4515 121.028 28.4144M115.888 28.1957C116.903 27.1347 117.837 26.1292 118.677 25.2032M118.677 25.2032C119.647 25.2558 121.647 25.3278 121.886 25.1952M118.677 25.2032L118.683 22.1418" stroke="#3F5542" stroke-width="0.1"/>
</g>
<path d="M4.09961 76.1435C6.95354 74.7114 39.0603 58.958 51.903 67.5508C57.8487 71.8471 62.6052 79.5805 34.0659 76.1435C26.9311 74.234 23.9344 69.842 69.0266 67.5508L131.1 65.4028" stroke="#949494"/>
<defs>
<filter id="filter0_d_475_912" x="84.9385" y="0.669922" width="69.543" height="69.9136" filterUnits="userSpaceOnUse" color-interpolation-filters="sRGB">
<feFlood flood-opacity="0" result="BackgroundImageFix"/>
<feColorMatrix in="SourceAlpha" type="matrix" values="0 0 0 0 0 0 0 0 0 0 0 0 0 0 0 0 0 0 127 0" result="hardAlpha"/>
<feOffset dx="7" dy="5"/>
<feGaussianBlur stdDeviation="12.5"/>
<feComposite in2="hardAlpha" operator="out"/>
<feColorMatrix type="matrix" values="0 0 0 0 0 0 0 0 0 0 0 0 0 0 0 0 0 0 0.25 0"/>
<feBlend mode="normal" in2="BackgroundImageFix" result="effect1_dropShadow_475_912"/>
<feBlend mode="normal" in="SourceGraphic" in2="effect1_dropShadow_475_912" result="shape"/>
</filter>
</defs>
</svg>
