<svg width="157" height="73" viewBox="0 0 157 73" fill="none" xmlns="http://www.w3.org/2000/svg">
<path d="M4.72408 55.1663C4.30269 55.1663 3.94783 55.0222 3.6595 54.7339C3.37118 54.4455 3.22702 54.0907 3.22702 53.6693V33.1428C3.22702 32.7214 3.37118 32.3665 3.6595 32.0782C3.94783 31.7677 4.30269 31.6125 4.72408 31.6125C5.14548 31.6125 5.50034 31.7677 5.78867 32.0782C6.09917 32.3665 6.25442 32.7214 6.25442 33.1428V41.9921H18.8631V33.1428C18.8631 32.7214 19.0072 32.3665 19.2956 32.0782C19.5839 31.7677 19.9387 31.6125 20.3601 31.6125C20.7815 31.6125 21.1364 31.7677 21.4247 32.0782C21.7352 32.3665 21.8905 32.7214 21.8905 33.1428V53.6693C21.8905 54.0907 21.7352 54.4455 21.4247 54.7339C21.1364 55.0222 20.7815 55.1663 20.3601 55.1663C19.9387 55.1663 19.5839 55.0222 19.2956 54.7339C19.0072 54.4455 18.8631 54.0907 18.8631 53.6693V44.8199H6.25442V53.6693C6.25442 54.0907 6.09917 54.4455 5.78867 54.7339C5.50034 55.0222 5.14548 55.1663 4.72408 55.1663ZM32.0666 55.3327C31.0908 55.3327 30.1814 55.1331 29.3387 54.7339C28.518 54.3346 27.8638 53.758 27.3758 53.0039C26.8879 52.2276 26.6439 51.3405 26.6439 50.3425C26.6439 48.7012 27.2871 47.3927 28.5735 46.4168C29.882 45.4409 31.7894 44.953 34.2956 44.953H38.3211V44.6869C38.3211 43.2231 37.9551 42.1696 37.2232 41.5264C36.5135 40.8832 35.3935 40.5616 33.8631 40.5616C33.0203 40.5616 32.2663 40.6281 31.6009 40.7612C30.9577 40.8943 30.2369 41.0939 29.4385 41.36C29.261 41.4044 29.1169 41.4266 29.006 41.4266C28.6733 41.4266 28.385 41.3046 28.141 41.0606C27.897 40.8167 27.775 40.5172 27.775 40.1624C27.775 39.5636 28.0634 39.1422 28.64 38.8982C30.5252 38.0998 32.4437 37.7005 34.3954 37.7005C35.9258 37.7005 37.2121 38.011 38.2545 38.632C39.3191 39.2531 40.0954 40.0626 40.5833 41.0606C41.0934 42.0365 41.3485 43.1011 41.3485 44.2544V53.6693C41.3485 54.0907 41.1932 54.4455 40.8827 54.7339C40.5944 55.0222 40.2395 55.1663 39.8181 55.1663C39.3967 55.1663 39.0419 55.0222 38.7536 54.7339C38.4652 54.4455 38.3211 54.0907 38.3211 53.6693V52.8043C36.6798 54.4899 34.595 55.3327 32.0666 55.3327ZM33.1978 52.6712C34.1736 52.6712 35.1162 52.4383 36.0256 51.9726C36.9349 51.4847 37.7001 50.8858 38.3211 50.1761V47.3816H34.6948C31.3458 47.3816 29.6713 48.2576 29.6713 50.0098C29.6713 50.8082 29.9375 51.4514 30.4698 51.9393C31.0242 52.4273 31.9336 52.6712 33.1978 52.6712ZM47.9197 55.1663C47.4983 55.1663 47.1435 55.0222 46.8551 54.7339C46.5668 54.4455 46.4227 54.0907 46.4227 53.6693V39.3972C46.4227 38.9758 46.5668 38.621 46.8551 38.3326C47.1435 38.0221 47.4983 37.8669 47.9197 37.8669C48.3411 37.8669 48.696 38.0221 48.9843 38.3326C49.2948 38.621 49.4501 38.9758 49.4501 39.3972V40.8277C51.0026 38.7429 52.7436 37.7005 54.6732 37.7005H54.8395C55.2609 37.7005 55.6047 37.8447 55.8708 38.133C56.1591 38.4213 56.3033 38.7762 56.3033 39.1976C56.3033 39.619 56.1591 39.9628 55.8708 40.2289C55.5825 40.4951 55.2165 40.6281 54.773 40.6281H54.6066C53.542 40.6281 52.5662 40.8943 51.679 41.4266C50.7919 41.9367 50.0489 42.6464 49.4501 43.5557V53.6693C49.4501 54.0907 49.2948 54.4455 48.9843 54.7339C48.696 55.0222 48.3411 55.1663 47.9197 55.1663ZM65.1797 55.1663C64.7805 55.1663 64.4145 55.0554 64.0818 54.8337C63.7491 54.5897 63.5052 54.2903 63.3499 53.9354L57.5613 40.0958C57.4504 39.8297 57.3949 39.5968 57.3949 39.3972C57.3949 38.9758 57.5391 38.621 57.8274 38.3326C58.1157 38.0221 58.4706 37.8669 58.892 37.8669C59.1803 37.8669 59.4465 37.9556 59.6904 38.133C59.9566 38.2883 60.1451 38.4879 60.256 38.7318L65.346 51.6399L70.4361 38.7318C70.547 38.4879 70.7244 38.2883 70.9683 38.133C71.2345 37.9556 71.5117 37.8669 71.8001 37.8669C72.2215 37.8669 72.5763 38.0221 72.8646 38.3326C73.153 38.621 73.2971 38.9758 73.2971 39.3972C73.2971 39.5968 73.2417 39.8297 73.1308 40.0958L67.3421 53.9354C67.1869 54.2903 66.9429 54.5897 66.6102 54.8337C66.2775 55.0554 65.9116 55.1663 65.5124 55.1663H65.1797ZM84.1571 55.3327C81.4513 55.3327 79.3332 54.5675 77.8029 53.0372C76.2947 51.4847 75.5406 49.3111 75.5406 46.5166C75.5406 44.9419 75.829 43.4892 76.4056 42.1585C76.9823 40.8277 77.8694 39.7521 79.0671 38.9315C80.2647 38.1108 81.7396 37.7005 83.4917 37.7005C85.133 37.7005 86.5524 38.0887 87.7501 38.8649C88.9477 39.619 89.8571 40.6392 90.4781 41.9256C91.0991 43.1898 91.4096 44.576 91.4096 46.0841C91.4096 46.5055 91.2654 46.8604 90.9771 47.1487C90.7109 47.437 90.345 47.5812 89.8792 47.5812H78.6013C78.7787 49.1337 79.3554 50.3425 80.3313 51.2074C81.3071 52.0724 82.6711 52.5049 84.4233 52.5049C85.3548 52.5049 86.1643 52.4162 86.8518 52.2387C87.5616 52.0613 88.2491 51.8063 88.9145 51.4736C89.0919 51.3849 89.2915 51.3405 89.5133 51.3405C89.8682 51.3405 90.1787 51.4625 90.4448 51.7064C90.7109 51.9504 90.844 52.2609 90.844 52.638C90.844 53.1259 90.5557 53.5362 89.979 53.8689C89.1141 54.3568 88.2602 54.7228 87.4174 54.9667C86.5746 55.2107 85.4878 55.3327 84.1571 55.3327ZM88.4154 45.1193C88.3489 44.0326 88.0606 43.1233 87.5505 42.3914C87.0625 41.6595 86.4526 41.1272 85.7207 40.7945C84.9888 40.4396 84.2458 40.2622 83.4917 40.2622C82.7377 40.2622 81.9947 40.4396 81.2628 40.7945C80.5309 41.1272 79.921 41.6595 79.433 42.3914C78.9451 43.1233 78.6679 44.0326 78.6013 45.1193H88.4154ZM103 55.3327C100.295 55.3327 98.1765 54.5675 96.6462 53.0372C95.138 51.4847 94.384 49.3111 94.384 46.5166C94.384 44.9419 94.6723 43.4892 95.2489 42.1585C95.8256 40.8277 96.7127 39.7521 97.9104 38.9315C99.1081 38.1108 100.583 37.7005 102.335 37.7005C103.976 37.7005 105.396 38.0887 106.593 38.8649C107.791 39.619 108.7 40.6392 109.321 41.9256C109.942 43.1898 110.253 44.576 110.253 46.0841C110.253 46.5055 110.109 46.8604 109.82 47.1487C109.554 47.437 109.188 47.5812 108.723 47.5812H97.4446C97.6221 49.1337 98.1987 50.3425 99.1746 51.2074C100.15 52.0724 101.514 52.5049 103.267 52.5049C104.198 52.5049 105.008 52.4162 105.695 52.2387C106.405 52.0613 107.092 51.8063 107.758 51.4736C107.935 51.3849 108.135 51.3405 108.357 51.3405C108.711 51.3405 109.022 51.4625 109.288 51.7064C109.554 51.9504 109.687 52.2609 109.687 52.638C109.687 53.1259 109.399 53.5362 108.822 53.8689C107.957 54.3568 107.104 54.7228 106.261 54.9667C105.418 55.2107 104.331 55.3327 103 55.3327ZM107.259 45.1193C107.192 44.0326 106.904 43.1233 106.394 42.3914C105.906 41.6595 105.296 41.1272 104.564 40.7945C103.832 40.4396 103.089 40.2622 102.335 40.2622C101.581 40.2622 100.838 40.4396 100.106 40.7945C99.3742 41.1272 98.7643 41.6595 98.2763 42.3914C97.7884 43.1233 97.5112 44.0326 97.4446 45.1193H107.259ZM121.844 55.3327C119.138 55.3327 117.02 54.5675 115.49 53.0372C113.981 51.4847 113.227 49.3111 113.227 46.5166C113.227 44.9419 113.516 43.4892 114.092 42.1585C114.669 40.8277 115.556 39.7521 116.754 38.9315C117.951 38.1108 119.426 37.7005 121.178 37.7005C122.82 37.7005 124.239 38.0887 125.437 38.8649C126.634 39.619 127.544 40.6392 128.165 41.9256C128.786 43.1898 129.096 44.576 129.096 46.0841C129.096 46.5055 128.952 46.8604 128.664 47.1487C128.398 47.437 128.032 47.5812 127.566 47.5812H116.288C116.465 49.1337 117.042 50.3425 118.018 51.2074C118.994 52.0724 120.358 52.5049 122.11 52.5049C123.041 52.5049 123.851 52.4162 124.538 52.2387C125.248 52.0613 125.936 51.8063 126.601 51.4736C126.779 51.3849 126.978 51.3405 127.2 51.3405C127.555 51.3405 127.865 51.4625 128.131 51.7064C128.398 51.9504 128.531 52.2609 128.531 52.638C128.531 53.1259 128.242 53.5362 127.666 53.8689C126.801 54.3568 125.947 54.7228 125.104 54.9667C124.261 55.2107 123.174 55.3327 121.844 55.3327ZM126.102 45.1193C126.036 44.0326 125.747 43.1233 125.237 42.3914C124.749 41.6595 124.139 41.1272 123.407 40.7945C122.675 40.4396 121.932 40.2622 121.178 40.2622C120.424 40.2622 119.681 40.4396 118.949 40.7945C118.218 41.1272 117.608 41.6595 117.12 42.3914C116.632 43.1233 116.354 44.0326 116.288 45.1193H126.102Z" fill="#1190CC"/>
<g filter="url(#filter0_d_475_912)">
<path d="M124.482 15.6698C123.456 16.7459 116.559 17.0555 113.035 18.4564C109.265 19.9545 108.149 22.2746 107.291 23.3051C104.953 27.0721 104.794 33.0561 105.007 35.5772C113.502 35.7425 118.291 32.6169 119.623 31.0335C123.34 26.8183 124.411 19.0347 124.482 15.6698Z" fill="#487D4B"/>
<path d="M124.43 15.8558C123.609 16.8778 122.325 18.3875 120.678 20.2032M105.136 35.1084C107.072 33.5174 108.944 31.8752 110.715 30.2442M106.404 25.775C106.424 28.3241 107.371 33.7266 111.001 34.9435M110.161 31.2128C112.013 32.1386 115.81 33.8756 116.18 33.4171M110.715 30.2442C110.346 29.4475 108.329 26.1325 109.641 21.2082M110.715 30.2442C111.398 29.6153 112.066 28.9879 112.718 28.3659M112.718 28.3659C114.579 29.2614 118.568 30.9683 119.632 30.631M112.718 28.3659C112.923 28.1697 113.127 27.974 113.329 27.779M113.329 27.779C112.747 26.4171 112.064 22.6199 113.981 18.3262M113.329 27.779C114.024 27.108 114.698 26.4445 115.35 25.7931M115.35 25.7931C115.634 25.8811 121.451 27.1678 121.971 27.1168M115.35 25.7931C116.242 24.9007 117.091 24.031 117.889 23.1957M116.176 24.4721C116.33 22.5126 116.716 18.4241 117.026 17.7459M117.889 23.1957C118.388 23.2454 121.965 24.4515 123.029 23.4144M117.889 23.1957C118.904 22.1347 119.838 21.1292 120.678 20.2032M120.678 20.2032C121.648 20.2558 123.648 20.3278 123.887 20.1952M120.678 20.2032L120.684 17.1418" stroke="#3F5542" stroke-width="0.1"/>
</g>
<path d="M6.09961 71.1435C8.95354 69.7114 41.0603 53.958 53.903 62.5508C59.8487 66.8471 64.6052 74.5805 36.0659 71.1435C28.9311 69.234 25.9344 64.842 71.0266 62.5508L133.1 60.4028" stroke="#949494"/>
<defs>
<filter id="filter0_d_475_912" x="86.9385" y="-4.33008" width="69.5439" height="69.9136" filterUnits="userSpaceOnUse" color-interpolation-filters="sRGB">
<feFlood flood-opacity="0" result="BackgroundImageFix"/>
<feColorMatrix in="SourceAlpha" type="matrix" values="0 0 0 0 0 0 0 0 0 0 0 0 0 0 0 0 0 0 127 0" result="hardAlpha"/>
<feOffset dx="7" dy="5"/>
<feGaussianBlur stdDeviation="12.5"/>
<feComposite in2="hardAlpha" operator="out"/>
<feColorMatrix type="matrix" values="0 0 0 0 0 0 0 0 0 0 0 0 0 0 0 0 0 0 0.25 0"/>
<feBlend mode="normal" in2="BackgroundImageFix" result="effect1_dropShadow_475_912"/>
<feBlend mode="normal" in="SourceGraphic" in2="effect1_dropShadow_475_912" result="shape"/>
</filter>
</defs>
</svg>
